# Blender 5.1.2
# www.blender.org
mtllib buraco.mtl
o Cylinder
v 0.000000 -0.012561 -1.000000
v 0.000000 0.914370 -0.907128
v 0.195090 -0.012561 -0.980785
v 0.176972 0.914370 -0.889698
v 0.382683 -0.012561 -0.923880
v 0.347143 0.914370 -0.838077
v 0.555570 -0.012561 -0.831470
v 0.503973 0.914370 -0.754249
v 0.707107 -0.012561 -0.707107
v 0.641436 0.914370 -0.641436
v 0.831470 -0.012561 -0.555570
v 0.754249 0.914370 -0.503973
v 0.923880 -0.012561 -0.382683
v 0.838077 0.914370 -0.347143
v 0.980785 -0.012561 -0.195090
v 0.889698 0.914370 -0.176972
v 1.000000 -0.012561 0.000000
v 0.907128 0.914370 0.000000
v 0.980785 -0.012561 0.195090
v 0.889698 0.914370 0.176972
v 0.923880 -0.012561 0.382683
v 0.838077 0.914370 0.347143
v 0.831470 -0.012561 0.555570
v 0.754249 0.914370 0.503973
v 0.707107 -0.012561 0.707107
v 0.641436 0.914370 0.641436
v 0.555570 -0.012561 0.831470
v 0.503973 0.914370 0.754249
v 0.382683 -0.012561 0.923880
v 0.347143 0.914370 0.838077
v 0.195090 -0.012561 0.980785
v 0.176972 0.914370 0.889698
v 0.000000 -0.012561 1.000000
v 0.000000 0.914370 0.907128
v -0.195090 -0.012561 0.980785
v -0.176972 0.914370 0.889698
v -0.382683 -0.012561 0.923880
v -0.347143 0.914370 0.838077
v -0.555570 -0.012561 0.831470
v -0.503973 0.914370 0.754249
v -0.707107 -0.012561 0.707107
v -0.641436 0.914370 0.641436
v -0.831470 -0.012561 0.555570
v -0.754249 0.914370 0.503973
v -0.923880 -0.012561 0.382683
v -0.838077 0.914370 0.347143
v -0.980785 -0.012561 0.195090
v -0.889698 0.914370 0.176972
v -1.000000 -0.012561 0.000000
v -0.907128 0.914370 0.000000
v -0.980785 -0.012561 -0.195090
v -0.889698 0.914370 -0.176972
v -0.923880 -0.012561 -0.382683
v -0.838077 0.914370 -0.347143
v -0.831470 -0.012561 -0.555570
v -0.754249 0.914370 -0.503973
v -0.707107 -0.012561 -0.707107
v -0.641436 0.914370 -0.641436
v -0.555570 -0.012561 -0.831470
v -0.503973 0.914370 -0.754249
v -0.382683 -0.012561 -0.923880
v -0.347143 0.914370 -0.838077
v -0.195090 -0.012561 -0.980785
v -0.176972 0.914370 -0.889698
v 0.195090 0.914370 -0.980785
v 0.000000 0.914370 -1.000000
v 0.382683 0.914370 -0.923880
v 0.555570 0.914370 -0.831470
v 0.707107 0.914370 -0.707107
v 0.831470 0.914370 -0.555570
v 0.923880 0.914370 -0.382683
v 0.980785 0.914370 -0.195090
v 1.000000 0.914370 0.000000
v 0.980785 0.914370 0.195090
v 0.923880 0.914370 0.382683
v 0.831470 0.914370 0.555570
v 0.707107 0.914370 0.707107
v 0.555570 0.914370 0.831470
v 0.382683 0.914370 0.923880
v 0.195090 0.914370 0.980785
v 0.000000 0.914370 1.000000
v -0.195090 0.914370 0.980785
v -0.382683 0.914370 0.923880
v -0.555570 0.914370 0.831470
v -0.707107 0.914370 0.707107
v -0.831470 0.914370 0.555570
v -0.923880 0.914370 0.382683
v -0.980785 0.914370 0.195090
v -1.000000 0.914370 0.000000
v -0.980785 0.914370 -0.195090
v -0.923880 0.914370 -0.382683
v -0.831470 0.914370 -0.555570
v -0.707107 0.914370 -0.707107
v -0.555570 0.914370 -0.831470
v -0.382683 0.914370 -0.923880
v -0.195090 0.914370 -0.980785
vn 0.0980 -0.0000 -0.9952
vn 0.2903 -0.0000 -0.9569
vn 0.4714 -0.0000 -0.8819
vn 0.6344 -0.0000 -0.7730
vn 0.7730 -0.0000 -0.6344
vn 0.8819 -0.0000 -0.4714
vn 0.9569 -0.0000 -0.2903
vn 0.9952 -0.0000 -0.0980
vn 0.9952 -0.0000 0.0980
vn 0.9569 -0.0000 0.2903
vn 0.8819 -0.0000 0.4714
vn 0.7730 -0.0000 0.6344
vn 0.6344 -0.0000 0.7730
vn 0.4714 -0.0000 0.8819
vn 0.2903 -0.0000 0.9569
vn 0.0980 -0.0000 0.9952
vn -0.0980 -0.0000 0.9952
vn -0.2903 -0.0000 0.9569
vn -0.4714 -0.0000 0.8819
vn -0.6344 -0.0000 0.7730
vn -0.7730 -0.0000 0.6344
vn -0.8819 -0.0000 0.4714
vn -0.9569 -0.0000 0.2903
vn -0.9952 -0.0000 0.0980
vn -0.9952 -0.0000 -0.0980
vn -0.9569 -0.0000 -0.2903
vn -0.8819 -0.0000 -0.4714
vn -0.7730 -0.0000 -0.6344
vn -0.6344 -0.0000 -0.7730
vn -0.4714 -0.0000 -0.8819
vn -0.2903 -0.0000 -0.9569
vn -0.0980 -0.0000 -0.9952
vn -0.0000 -1.0000 -0.0000
vn -0.0000 1.0000 -0.0000
vt 1.000000 0.500000
vt 1.000000 1.000000
vt 0.968750 1.000000
vt 0.968750 0.500000
vt 0.937500 1.000000
vt 0.937500 0.500000
vt 0.906250 1.000000
vt 0.906250 0.500000
vt 0.875000 1.000000
vt 0.875000 0.500000
vt 0.843750 1.000000
vt 0.843750 0.500000
vt 0.812500 1.000000
vt 0.812500 0.500000
vt 0.781250 1.000000
vt 0.781250 0.500000
vt 0.750000 1.000000
vt 0.750000 0.500000
vt 0.718750 1.000000
vt 0.718750 0.500000
vt 0.687500 1.000000
vt 0.687500 0.500000
vt 0.656250 1.000000
vt 0.656250 0.500000
vt 0.625000 1.000000
vt 0.625000 0.500000
vt 0.593750 1.000000
vt 0.593750 0.500000
vt 0.562500 1.000000
vt 0.562500 0.500000
vt 0.531250 1.000000
vt 0.531250 0.500000
vt 0.500000 1.000000
vt 0.500000 0.500000
vt 0.468750 1.000000
vt 0.468750 0.500000
vt 0.437500 1.000000
vt 0.437500 0.500000
vt 0.406250 1.000000
vt 0.406250 0.500000
vt 0.375000 1.000000
vt 0.375000 0.500000
vt 0.343750 1.000000
vt 0.343750 0.500000
vt 0.312500 1.000000
vt 0.312500 0.500000
vt 0.281250 1.000000
vt 0.281250 0.500000
vt 0.250000 1.000000
vt 0.250000 0.500000
vt 0.218750 1.000000
vt 0.218750 0.500000
vt 0.187500 1.000000
vt 0.187500 0.500000
vt 0.156250 1.000000
vt 0.156250 0.500000
vt 0.125000 1.000000
vt 0.125000 0.500000
vt 0.093750 1.000000
vt 0.093750 0.500000
vt 0.062500 1.000000
vt 0.062500 0.500000
vt 0.031250 1.000000
vt 0.031250 0.500000
vt 0.000000 1.000000
vt 0.000000 0.500000
vt 0.750000 0.490000
vt 0.796822 0.485388
vt 0.841844 0.471731
vt 0.883337 0.449553
vt 0.919706 0.419706
vt 0.949553 0.383337
vt 0.971731 0.341844
vt 0.985388 0.296822
vt 0.990000 0.250000
vt 0.985388 0.203178
vt 0.971731 0.158156
vt 0.949553 0.116663
vt 0.919706 0.080294
vt 0.883337 0.050447
vt 0.841844 0.028269
vt 0.796822 0.014612
vt 0.750000 0.010000
vt 0.703178 0.014612
vt 0.658156 0.028269
vt 0.616663 0.050447
vt 0.580294 0.080294
vt 0.550447 0.116663
vt 0.528269 0.158156
vt 0.514612 0.203178
vt 0.510000 0.250000
vt 0.514612 0.296822
vt 0.528269 0.341844
vt 0.550447 0.383337
vt 0.580294 0.419706
vt 0.616663 0.449553
vt 0.658156 0.471731
vt 0.703178 0.485388
vt 0.250000 0.467711
vt 0.292473 0.463528
vt 0.296822 0.485388
vt 0.250000 0.490000
vt 0.333314 0.451139
vt 0.341844 0.471731
vt 0.370954 0.431020
vt 0.383337 0.449553
vt 0.403945 0.403945
vt 0.419706 0.419706
vt 0.431020 0.370954
vt 0.449553 0.383337
vt 0.451138 0.333314
vt 0.471731 0.341844
vt 0.463528 0.292473
vt 0.485388 0.296822
vt 0.467711 0.250000
vt 0.490000 0.250000
vt 0.463527 0.207527
vt 0.485388 0.203178
vt 0.451139 0.166686
vt 0.471731 0.158156
vt 0.431020 0.129046
vt 0.449553 0.116663
vt 0.403945 0.096055
vt 0.419706 0.080294
vt 0.370954 0.068980
vt 0.383337 0.050447
vt 0.333314 0.048861
vt 0.341844 0.028269
vt 0.292473 0.036473
vt 0.296822 0.014612
vt 0.250000 0.032289
vt 0.250000 0.010000
vt 0.207527 0.036473
vt 0.203178 0.014612
vt 0.166686 0.048861
vt 0.158156 0.028269
vt 0.129046 0.068980
vt 0.116663 0.050447
vt 0.096055 0.096055
vt 0.080294 0.080294
vt 0.068980 0.129046
vt 0.050447 0.116663
vt 0.048861 0.166686
vt 0.028269 0.158156
vt 0.036472 0.207527
vt 0.014612 0.203178
vt 0.032289 0.250000
vt 0.010000 0.250000
vt 0.036473 0.292473
vt 0.014612 0.296822
vt 0.048861 0.333314
vt 0.028269 0.341844
vt 0.068980 0.370954
vt 0.050447 0.383337
vt 0.096055 0.403945
vt 0.080294 0.419706
vt 0.129046 0.431020
vt 0.116663 0.449553
vt 0.166686 0.451139
vt 0.158156 0.471731
vt 0.207527 0.463528
vt 0.203178 0.485388
s 0
f 1/1/1 66/2/1 65/3/1 3/4/1
f 3/4/2 65/3/2 67/5/2 5/6/2
f 5/6/3 67/5/3 68/7/3 7/8/3
f 7/8/4 68/7/4 69/9/4 9/10/4
f 9/10/5 69/9/5 70/11/5 11/12/5
f 11/12/6 70/11/6 71/13/6 13/14/6
f 13/14/7 71/13/7 72/15/7 15/16/7
f 15/16/8 72/15/8 73/17/8 17/18/8
f 17/18/9 73/17/9 74/19/9 19/20/9
f 19/20/10 74/19/10 75/21/10 21/22/10
f 21/22/11 75/21/11 76/23/11 23/24/11
f 23/24/12 76/23/12 77/25/12 25/26/12
f 25/26/13 77/25/13 78/27/13 27/28/13
f 27/28/14 78/27/14 79/29/14 29/30/14
f 29/30/15 79/29/15 80/31/15 31/32/15
f 31/32/16 80/31/16 81/33/16 33/34/16
f 33/34/17 81/33/17 82/35/17 35/36/17
f 35/36/18 82/35/18 83/37/18 37/38/18
f 37/38/19 83/37/19 84/39/19 39/40/19
f 39/40/20 84/39/20 85/41/20 41/42/20
f 41/42/21 85/41/21 86/43/21 43/44/21
f 43/44/22 86/43/22 87/45/22 45/46/22
f 45/46/23 87/45/23 88/47/23 47/48/23
f 47/48/24 88/47/24 89/49/24 49/50/24
f 49/50/25 89/49/25 90/51/25 51/52/25
f 51/52/26 90/51/26 91/53/26 53/54/26
f 53/54/27 91/53/27 92/55/27 55/56/27
f 55/56/28 92/55/28 93/57/28 57/58/28
f 57/58/29 93/57/29 94/59/29 59/60/29
f 59/60/30 94/59/30 95/61/30 61/62/30
f 61/62/31 95/61/31 96/63/31 63/64/31
f 63/64/32 96/63/32 66/65/32 1/66/32
f 1/67/33 3/68/33 5/69/33 7/70/33 9/71/33 11/72/33 13/73/33 15/74/33 17/75/33 19/76/33 21/77/33 23/78/33 25/79/33 27/80/33 29/81/33 31/82/33 33/83/33 35/84/33 37/85/33 39/86/33 41/87/33 43/88/33 45/89/33 47/90/33 49/91/33 51/92/33 53/93/33 55/94/33 57/95/33 59/96/33 61/97/33 63/98/33
f 2/99/34 4/100/34 65/101/34 66/102/34
f 4/100/34 6/103/34 67/104/34 65/101/34
f 6/103/34 8/105/34 68/106/34 67/104/34
f 8/105/34 10/107/34 69/108/34 68/106/34
f 10/107/34 12/109/34 70/110/34 69/108/34
f 12/109/34 14/111/34 71/112/34 70/110/34
f 14/111/34 16/113/34 72/114/34 71/112/34
f 16/113/34 18/115/34 73/116/34 72/114/34
f 18/115/34 20/117/34 74/118/34 73/116/34
f 20/117/34 22/119/34 75/120/34 74/118/34
f 22/119/34 24/121/34 76/122/34 75/120/34
f 24/121/34 26/123/34 77/124/34 76/122/34
f 26/123/34 28/125/34 78/126/34 77/124/34
f 28/125/34 30/127/34 79/128/34 78/126/34
f 30/127/34 32/129/34 80/130/34 79/128/34
f 32/129/34 34/131/34 81/132/34 80/130/34
f 34/131/34 36/133/34 82/134/34 81/132/34
f 36/133/34 38/135/34 83/136/34 82/134/34
f 38/135/34 40/137/34 84/138/34 83/136/34
f 40/137/34 42/139/34 85/140/34 84/138/34
f 42/139/34 44/141/34 86/142/34 85/140/34
f 44/141/34 46/143/34 87/144/34 86/142/34
f 46/143/34 48/145/34 88/146/34 87/144/34
f 48/145/34 50/147/34 89/148/34 88/146/34
f 50/147/34 52/149/34 90/150/34 89/148/34
f 52/149/34 54/151/34 91/152/34 90/150/34
f 54/151/34 56/153/34 92/154/34 91/152/34
f 56/153/34 58/155/34 93/156/34 92/154/34
f 58/155/34 60/157/34 94/158/34 93/156/34
f 60/157/34 62/159/34 95/160/34 94/158/34
f 62/159/34 64/161/34 96/162/34 95/160/34
f 64/161/34 2/99/34 66/102/34 96/162/34
